<?xml version="1.0" encoding="UTF-8" standalone="no"?>
<svg
   xmlns:dc="http://purl.org/dc/elements/1.1/"
   xmlns:cc="http://creativecommons.org/ns#"
   xmlns:rdf="http://www.w3.org/1999/02/22-rdf-syntax-ns#"
   xmlns:svg="http://www.w3.org/2000/svg"
   xmlns="http://www.w3.org/2000/svg"
   xmlns:sodipodi="http://sodipodi.sourceforge.net/DTD/sodipodi-0.dtd"
   xmlns:inkscape="http://www.inkscape.org/namespaces/inkscape"
   version="1.1"
   id="svg2"
   style="display:inline"
   height="24"
   width="24"
   inkscape:version="0.91 r13725"
   sodipodi:docname="icon.svg"
   inkscape:export-filename="/mnt/host/Projects/qgis-natural-earth-raster/assets/icon.png"
   inkscape:export-xdpi="240"
   inkscape:export-ydpi="240">
  <title
     id="title4147">Natural Earth Raster</title>
  <sodipodi:namedview
     pagecolor="#ffffff"
     bordercolor="#666666"
     borderopacity="1"
     objecttolerance="10"
     gridtolerance="10"
     guidetolerance="10"
     inkscape:pageopacity="0"
     inkscape:pageshadow="2"
     inkscape:window-width="1830"
     inkscape:window-height="970"
     id="namedview19"
     showgrid="true"
     inkscape:zoom="27.812867"
     inkscape:cx="11.38218"
     inkscape:cy="11.676409"
     inkscape:window-x="0"
     inkscape:window-y="25"
     inkscape:window-maximized="0"
     inkscape:current-layer="svg2">
    <inkscape:grid
       type="xygrid"
       id="grid4147"
       dotted="true"
       originx="0.5"
       originy="0.5" />
  </sodipodi:namedview>
  <metadata
     id="metadata22">
    <rdf:RDF>
      <cc:Work
         rdf:about="">
        <dc:format>image/svg+xml</dc:format>
        <dc:type
           rdf:resource="http://purl.org/dc/dcmitype/StillImage" />
        <dc:title>Natural Earth Raster</dc:title>
        <cc:license
           rdf:resource="http://creativecommons.org/licenses/by/3.0/" />
        <dc:date>2015-08-10</dc:date>
        <dc:creator>
          <cc:Agent>
            <dc:title>Morten Wulff</dc:title>
          </cc:Agent>
        </dc:creator>
        <dc:rights>
          <cc:Agent>
            <dc:title>Morten Wulff</dc:title>
          </cc:Agent>
        </dc:rights>
        <dc:publisher>
          <cc:Agent>
            <dc:title>Dagbladet Information</dc:title>
          </cc:Agent>
        </dc:publisher>
        <dc:subject>
          <rdf:Bag>
            <rdf:li>icon</rdf:li>
            <rdf:li>earth</rdf:li>
            <rdf:li>globe</rdf:li>
          </rdf:Bag>
        </dc:subject>
      </cc:Work>
      <cc:License
         rdf:about="http://creativecommons.org/licenses/by/3.0/">
        <cc:permits
           rdf:resource="http://creativecommons.org/ns#Reproduction" />
        <cc:permits
           rdf:resource="http://creativecommons.org/ns#Distribution" />
        <cc:requires
           rdf:resource="http://creativecommons.org/ns#Notice" />
        <cc:requires
           rdf:resource="http://creativecommons.org/ns#Attribution" />
        <cc:permits
           rdf:resource="http://creativecommons.org/ns#DerivativeWorks" />
      </cc:License>
    </rdf:RDF>
  </metadata>
  <defs
     id="defs20" />
  <g
     transform="translate(0,-8)"
     style="display:inline"
     id="layer4">
    <circle
       r="12"
       cy="19.999636"
       cx="12.000366"
       id="path4980"
       style="opacity:1;fill:#6d97c4;fill-opacity:1;stroke-width:1;stroke-miterlimit:4;stroke-dasharray:none" />
    <path
       id="path4205"
       d="M 12,8 C 5.372625,8 0,13.372625 0,20 0,26.627375 5.372625,32 12,32 18.627375,32 24,26.627375 24,20 24,13.372625 18.627375,8 12,8 Z m 0,22.5 c -1.475625,0 -2.88,-0.304875 -4.153875,-0.85425 l 5.4645,-6.147375 C 13.4325,23.361125 13.5,23.18375 13.5,23 l 0,-2.25 C 13.5,20.335625 13.164375,20 12.75,20 10.10175,20 7.307625,17.247125 7.28025,17.21975 7.139625,17.079125 6.94875,17 6.75,17 l -3,0 C 3.336,17 3,17.335625 3,17.75 l 0,4.5 c 0,0.28425 0.1605,0.54375 0.41475,0.670875 L 6,24.2135 6,28.617125 C 3.280125,26.719625 1.5,23.56775 1.5,20 c 0,-1.610625 0.363,-3.136125 1.011,-4.5 l 2.739,0 c 0.19875,0 0.389625,-0.07913 0.53025,-0.21975 l 3,-3 C 8.920875,12.139625 9,11.94875 9,11.75 L 9,9.93575 C 9.950625,9.652625 10.9575,9.5 12,9.5 c 1.65,0 3.211125,0.381 4.6005,1.059375 -0.09713,0.08213 -0.191625,0.168 -0.282375,0.25875 C 15.468,11.66825 15,12.798125 15,14 c 0,1.201875 0.468,2.332125 1.318125,3.181875 0.853875,0.853875 1.99725,1.318875 3.178875,1.3185 0.07425,0 0.1485,-0.0019 0.223125,-0.0056 0.323625,1.21425 0.90825,4.37475 -0.196875,8.726625 -0.0105,0.04087 -0.0165,0.08175 -0.01987,0.122625 -1.906125,1.947375 -4.563375,3.156 -7.503375,3.156 z"
       style="fill:#ffcc30;fill-opacity:1" />
    <path
       id="path4320-0-7"
       d="m 0.676572,18.940762 22.734479,0.05917"
       style="display:inline;opacity:0.5;fill:none;fill-rule:evenodd;stroke:#e6e6e6;stroke-width:1;stroke-linecap:round;stroke-linejoin:round;stroke-miterlimit:4;stroke-dasharray:none;stroke-opacity:1" />
    <path
       id="path4320-0-3"
       d="m 0.972111,16.940761 22.009117,0.05917"
       style="display:inline;opacity:0.5;fill:none;fill-rule:evenodd;stroke:#e6e6e6;stroke-width:1;stroke-linecap:round;stroke-linejoin:round;stroke-miterlimit:4;stroke-dasharray:none;stroke-opacity:1" />
    <path
       id="path4320-0-5"
       d="m 1.752844,14.94076 20.53097,0.05917"
       style="display:inline;opacity:0.5;fill:none;fill-rule:evenodd;stroke:#e6e6e6;stroke-width:1;stroke-linecap:round;stroke-linejoin:round;stroke-miterlimit:4;stroke-dasharray:none;stroke-opacity:1" />
    <path
       id="path4320-0-75"
       d="m 2.99334,12.940757 18.104444,0.05917"
       style="display:inline;opacity:0.5;fill:none;fill-rule:evenodd;stroke:#e6e6e6;stroke-width:1;stroke-linecap:round;stroke-linejoin:round;stroke-miterlimit:4;stroke-dasharray:none;stroke-opacity:1" />
    <path
       id="path4320-0-4"
       d="m 4.990473,10.94075 14.066639,0.05917"
       style="display:inline;opacity:0.5;fill:none;fill-rule:evenodd;stroke:#e6e6e6;stroke-width:1;stroke-linecap:round;stroke-linejoin:round;stroke-miterlimit:4;stroke-dasharray:none;stroke-opacity:1" />
    <path
       id="path4320-0-38"
       d="m 0.896948,22.940761 22.169629,0.05917"
       style="display:inline;opacity:0.5;fill:none;fill-rule:evenodd;stroke:#e6e6e6;stroke-width:1;stroke-linecap:round;stroke-linejoin:round;stroke-miterlimit:4;stroke-dasharray:none;stroke-opacity:1" />
    <path
       id="path4320-0-1"
       d="m 1.686765,24.94076 20.629899,0.05917"
       style="display:inline;opacity:0.5;fill:none;fill-rule:evenodd;stroke:#e6e6e6;stroke-width:0.99999994;stroke-linecap:round;stroke-linejoin:round;stroke-miterlimit:4;stroke-dasharray:none;stroke-opacity:1" />
    <path
       id="path4320-0-9"
       d="m 2.898074,26.940757 18.161301,0.05917"
       style="display:inline;opacity:0.5;fill:none;fill-rule:evenodd;stroke:#e6e6e6;stroke-width:1;stroke-linecap:round;stroke-linejoin:round;stroke-miterlimit:4;stroke-dasharray:none;stroke-opacity:1" />
    <path
       id="path4320-0-10"
       d="m 4.879293,28.94075 14.119984,0.05917"
       style="display:inline;opacity:0.5;fill:none;fill-rule:evenodd;stroke:#e6e6e6;stroke-width:1;stroke-linecap:round;stroke-linejoin:round;stroke-miterlimit:4;stroke-dasharray:none;stroke-opacity:1" />
    <path
       id="path4320-0"
       d="m 0.608146,20.940762 22.782747,0.05917"
       style="display:inline;opacity:0.5;fill:none;fill-rule:evenodd;stroke:#e6e6e6;stroke-width:1;stroke-linecap:round;stroke-linejoin:round;stroke-miterlimit:4;stroke-dasharray:none;stroke-opacity:1" />
    <circle
       r="11.499985"
       style="display:inline;opacity:1;fill:none;fill-opacity:1;fill-rule:nonzero;stroke:#415a75;stroke-width:1.00003028;stroke-linecap:round;stroke-linejoin:round;stroke-miterlimit:4;stroke-dasharray:none;stroke-dashoffset:7;stroke-opacity:1"
       id="path3834-7"
       cx="12.000366"
       cy="19.999636" />
  </g>
</svg>
